<mxfile host="app.diagrams.net" modified="2023-10-22T05:18:29.072Z" agent="Mozilla/5.0 (Windows NT 10.0; Win64; x64) AppleWebKit/537.36 (KHTML, like Gecko) Chrome/117.0.0.0 Safari/537.36" etag="DNhzm8eMhhzvsDA2Id9p" version="22.0.6" type="github">
  <diagram id="R2lEEEUBdFMjLlhIrx00" name="Page-1">
    <mxGraphModel dx="2485" dy="1303" grid="1" gridSize="10" guides="1" tooltips="1" connect="1" arrows="1" fold="1" page="1" pageScale="1" pageWidth="850" pageHeight="1100" math="0" shadow="0" extFonts="Permanent Marker^https://fonts.googleapis.com/css?family=Permanent+Marker">
      <root>
        <mxCell id="0" />
        <mxCell id="1" parent="0" />
        <mxCell id="9QXfI7t6Q8YMWa2osV04-4" value="" style="rounded=0;orthogonalLoop=1;jettySize=auto;html=1;endArrow=none;endFill=0;" parent="1" source="9QXfI7t6Q8YMWa2osV04-1" edge="1">
          <mxGeometry relative="1" as="geometry">
            <mxPoint x="-620.0004037394748" y="469.6224122054766" as="targetPoint" />
          </mxGeometry>
        </mxCell>
        <mxCell id="9QXfI7t6Q8YMWa2osV04-8" value="" style="rounded=0;orthogonalLoop=1;jettySize=auto;html=1;endArrow=none;endFill=0;" parent="1" source="9QXfI7t6Q8YMWa2osV04-1" target="9QXfI7t6Q8YMWa2osV04-5" edge="1">
          <mxGeometry relative="1" as="geometry" />
        </mxCell>
        <mxCell id="9QXfI7t6Q8YMWa2osV04-10" value="" style="rounded=0;orthogonalLoop=1;jettySize=auto;html=1;endArrow=none;endFill=0;" parent="1" source="9QXfI7t6Q8YMWa2osV04-1" target="9QXfI7t6Q8YMWa2osV04-9" edge="1">
          <mxGeometry relative="1" as="geometry" />
        </mxCell>
        <mxCell id="9QXfI7t6Q8YMWa2osV04-12" value="" style="rounded=0;orthogonalLoop=1;jettySize=auto;html=1;endArrow=none;endFill=0;" parent="1" source="9QXfI7t6Q8YMWa2osV04-1" target="9QXfI7t6Q8YMWa2osV04-11" edge="1">
          <mxGeometry relative="1" as="geometry" />
        </mxCell>
        <mxCell id="9QXfI7t6Q8YMWa2osV04-115" value="" style="rounded=0;orthogonalLoop=1;jettySize=auto;html=1;edgeStyle=orthogonalEdgeStyle;entryX=0;entryY=0.5;entryDx=0;entryDy=0;" parent="1" source="9QXfI7t6Q8YMWa2osV04-1" target="9QXfI7t6Q8YMWa2osV04-114" edge="1">
          <mxGeometry relative="1" as="geometry">
            <Array as="points">
              <mxPoint x="-537" y="795" />
              <mxPoint x="-60" y="795" />
              <mxPoint x="-60" y="695" />
            </Array>
          </mxGeometry>
        </mxCell>
        <mxCell id="9QXfI7t6Q8YMWa2osV04-1" value="직원" style="rounded=0;whiteSpace=wrap;html=1;" parent="1" vertex="1">
          <mxGeometry x="-596.88" y="500" width="120" height="60" as="geometry" />
        </mxCell>
        <mxCell id="9QXfI7t6Q8YMWa2osV04-3" value="업무" style="ellipse;whiteSpace=wrap;html=1;rounded=0;" parent="1" vertex="1">
          <mxGeometry x="-690" y="410" width="80" height="80" as="geometry" />
        </mxCell>
        <mxCell id="9QXfI7t6Q8YMWa2osV04-5" value="생년월일" style="ellipse;whiteSpace=wrap;html=1;rounded=0;" parent="1" vertex="1">
          <mxGeometry x="-616.88" y="320" width="80" height="80" as="geometry" />
        </mxCell>
        <mxCell id="9QXfI7t6Q8YMWa2osV04-9" value="연봉" style="ellipse;whiteSpace=wrap;html=1;rounded=0;" parent="1" vertex="1">
          <mxGeometry x="-506.88" y="320" width="80" height="80" as="geometry" />
        </mxCell>
        <mxCell id="9QXfI7t6Q8YMWa2osV04-11" value="급여 계좌" style="ellipse;whiteSpace=wrap;html=1;rounded=0;" parent="1" vertex="1">
          <mxGeometry x="-436.88" y="400" width="80" height="80" as="geometry" />
        </mxCell>
        <mxCell id="9QXfI7t6Q8YMWa2osV04-15" value="" style="rounded=0;orthogonalLoop=1;jettySize=auto;html=1;endArrow=none;endFill=0;" parent="1" source="9QXfI7t6Q8YMWa2osV04-13" target="9QXfI7t6Q8YMWa2osV04-14" edge="1">
          <mxGeometry relative="1" as="geometry" />
        </mxCell>
        <mxCell id="9QXfI7t6Q8YMWa2osV04-17" value="" style="rounded=0;orthogonalLoop=1;jettySize=auto;html=1;endArrow=none;endFill=0;" parent="1" source="9QXfI7t6Q8YMWa2osV04-13" target="9QXfI7t6Q8YMWa2osV04-16" edge="1">
          <mxGeometry relative="1" as="geometry" />
        </mxCell>
        <mxCell id="9QXfI7t6Q8YMWa2osV04-19" value="" style="rounded=0;orthogonalLoop=1;jettySize=auto;html=1;endArrow=none;endFill=0;" parent="1" source="9QXfI7t6Q8YMWa2osV04-13" target="9QXfI7t6Q8YMWa2osV04-18" edge="1">
          <mxGeometry relative="1" as="geometry" />
        </mxCell>
        <mxCell id="9QXfI7t6Q8YMWa2osV04-21" value="" style="rounded=0;orthogonalLoop=1;jettySize=auto;html=1;endArrow=none;endFill=0;" parent="1" source="9QXfI7t6Q8YMWa2osV04-13" target="9QXfI7t6Q8YMWa2osV04-20" edge="1">
          <mxGeometry relative="1" as="geometry" />
        </mxCell>
        <mxCell id="9QXfI7t6Q8YMWa2osV04-42" style="rounded=0;orthogonalLoop=1;jettySize=auto;html=1;exitX=0;exitY=0.5;exitDx=0;exitDy=0;" parent="1" source="9QXfI7t6Q8YMWa2osV04-13" target="9QXfI7t6Q8YMWa2osV04-36" edge="1">
          <mxGeometry relative="1" as="geometry" />
        </mxCell>
        <mxCell id="9QXfI7t6Q8YMWa2osV04-13" value="개인 정보" style="rounded=0;whiteSpace=wrap;html=1;" parent="1" vertex="1">
          <mxGeometry x="40" y="320" width="120" height="60" as="geometry" />
        </mxCell>
        <mxCell id="9QXfI7t6Q8YMWa2osV04-14" value="이름" style="ellipse;whiteSpace=wrap;html=1;rounded=0;" parent="1" vertex="1">
          <mxGeometry x="-80" y="190" width="80" height="80" as="geometry" />
        </mxCell>
        <mxCell id="9QXfI7t6Q8YMWa2osV04-16" value="성별" style="ellipse;whiteSpace=wrap;html=1;rounded=0;" parent="1" vertex="1">
          <mxGeometry x="-10" y="120" width="80" height="80" as="geometry" />
        </mxCell>
        <mxCell id="9QXfI7t6Q8YMWa2osV04-18" value="전화번호" style="ellipse;whiteSpace=wrap;html=1;rounded=0;" parent="1" vertex="1">
          <mxGeometry x="100" y="120" width="80" height="80" as="geometry" />
        </mxCell>
        <mxCell id="9QXfI7t6Q8YMWa2osV04-20" value="이메일" style="ellipse;whiteSpace=wrap;html=1;rounded=0;" parent="1" vertex="1">
          <mxGeometry x="170" y="190" width="80" height="80" as="geometry" />
        </mxCell>
        <mxCell id="9QXfI7t6Q8YMWa2osV04-25" value="" style="rounded=0;orthogonalLoop=1;jettySize=auto;html=1;endArrow=none;endFill=0;" parent="1" source="9QXfI7t6Q8YMWa2osV04-22" target="9QXfI7t6Q8YMWa2osV04-24" edge="1">
          <mxGeometry relative="1" as="geometry" />
        </mxCell>
        <mxCell id="9QXfI7t6Q8YMWa2osV04-28" value="" style="rounded=0;orthogonalLoop=1;jettySize=auto;html=1;endArrow=none;endFill=0;" parent="1" source="9QXfI7t6Q8YMWa2osV04-22" target="9QXfI7t6Q8YMWa2osV04-27" edge="1">
          <mxGeometry relative="1" as="geometry" />
        </mxCell>
        <mxCell id="9QXfI7t6Q8YMWa2osV04-30" value="" style="rounded=0;orthogonalLoop=1;jettySize=auto;html=1;endArrow=none;endFill=0;" parent="1" source="9QXfI7t6Q8YMWa2osV04-22" target="9QXfI7t6Q8YMWa2osV04-29" edge="1">
          <mxGeometry relative="1" as="geometry" />
        </mxCell>
        <mxCell id="9QXfI7t6Q8YMWa2osV04-33" value="" style="rounded=0;orthogonalLoop=1;jettySize=auto;html=1;endArrow=none;endFill=0;" parent="1" source="9QXfI7t6Q8YMWa2osV04-22" target="9QXfI7t6Q8YMWa2osV04-32" edge="1">
          <mxGeometry relative="1" as="geometry" />
        </mxCell>
        <mxCell id="9QXfI7t6Q8YMWa2osV04-35" value="" style="rounded=0;orthogonalLoop=1;jettySize=auto;html=1;endArrow=none;endFill=0;" parent="1" source="9QXfI7t6Q8YMWa2osV04-22" target="9QXfI7t6Q8YMWa2osV04-34" edge="1">
          <mxGeometry relative="1" as="geometry" />
        </mxCell>
        <mxCell id="9QXfI7t6Q8YMWa2osV04-40" style="rounded=0;orthogonalLoop=1;jettySize=auto;html=1;exitX=0;exitY=0.5;exitDx=0;exitDy=0;entryX=1;entryY=0.5;entryDx=0;entryDy=0;strokeColor=none;" parent="1" source="9QXfI7t6Q8YMWa2osV04-22" target="9QXfI7t6Q8YMWa2osV04-13" edge="1">
          <mxGeometry relative="1" as="geometry" />
        </mxCell>
        <mxCell id="9QXfI7t6Q8YMWa2osV04-41" style="edgeStyle=orthogonalEdgeStyle;rounded=0;orthogonalLoop=1;jettySize=auto;html=1;exitX=0;exitY=0.5;exitDx=0;exitDy=0;entryX=1;entryY=0.5;entryDx=0;entryDy=0;endArrow=none;endFill=0;" parent="1" source="9QXfI7t6Q8YMWa2osV04-22" target="9QXfI7t6Q8YMWa2osV04-13" edge="1">
          <mxGeometry relative="1" as="geometry" />
        </mxCell>
        <mxCell id="9QXfI7t6Q8YMWa2osV04-22" value="주소" style="rounded=0;whiteSpace=wrap;html=1;" parent="1" vertex="1">
          <mxGeometry x="283.12" y="320" width="120" height="60" as="geometry" />
        </mxCell>
        <mxCell id="9QXfI7t6Q8YMWa2osV04-24" value="시" style="ellipse;whiteSpace=wrap;html=1;rounded=0;" parent="1" vertex="1">
          <mxGeometry x="293.12" y="160" width="80" height="50" as="geometry" />
        </mxCell>
        <mxCell id="9QXfI7t6Q8YMWa2osV04-27" value="군" style="ellipse;whiteSpace=wrap;html=1;rounded=0;" parent="1" vertex="1">
          <mxGeometry x="390" y="150" width="80" height="50" as="geometry" />
        </mxCell>
        <mxCell id="9QXfI7t6Q8YMWa2osV04-29" value="구" style="ellipse;whiteSpace=wrap;html=1;rounded=0;" parent="1" vertex="1">
          <mxGeometry x="410" y="230" width="80" height="40" as="geometry" />
        </mxCell>
        <mxCell id="9QXfI7t6Q8YMWa2osV04-32" value="동" style="ellipse;whiteSpace=wrap;html=1;rounded=0;" parent="1" vertex="1">
          <mxGeometry x="470" y="280" width="80" height="50" as="geometry" />
        </mxCell>
        <mxCell id="9QXfI7t6Q8YMWa2osV04-34" value="우편번호" style="ellipse;whiteSpace=wrap;html=1;rounded=0;" parent="1" vertex="1">
          <mxGeometry x="510" y="210" width="80" height="50" as="geometry" />
        </mxCell>
        <mxCell id="9QXfI7t6Q8YMWa2osV04-53" style="edgeStyle=orthogonalEdgeStyle;rounded=0;orthogonalLoop=1;jettySize=auto;html=1;exitX=0.5;exitY=1;exitDx=0;exitDy=0;" parent="1" source="9QXfI7t6Q8YMWa2osV04-36" target="9QXfI7t6Q8YMWa2osV04-48" edge="1">
          <mxGeometry relative="1" as="geometry" />
        </mxCell>
        <mxCell id="9QXfI7t6Q8YMWa2osV04-120" style="edgeStyle=orthogonalEdgeStyle;rounded=0;orthogonalLoop=1;jettySize=auto;html=1;entryX=1;entryY=0.5;entryDx=0;entryDy=0;" parent="1" source="9QXfI7t6Q8YMWa2osV04-36" target="9QXfI7t6Q8YMWa2osV04-1" edge="1">
          <mxGeometry relative="1" as="geometry">
            <Array as="points">
              <mxPoint x="-310" y="350" />
              <mxPoint x="-310" y="530" />
            </Array>
          </mxGeometry>
        </mxCell>
        <mxCell id="9QXfI7t6Q8YMWa2osV04-36" value="입력" style="rhombus;whiteSpace=wrap;html=1;rounded=0;" parent="1" vertex="1">
          <mxGeometry x="-256.88" y="310" width="80" height="80" as="geometry" />
        </mxCell>
        <mxCell id="9QXfI7t6Q8YMWa2osV04-44" value="" style="rounded=0;orthogonalLoop=1;jettySize=auto;html=1;endArrow=none;endFill=0;" parent="1" source="9QXfI7t6Q8YMWa2osV04-48" target="9QXfI7t6Q8YMWa2osV04-49" edge="1">
          <mxGeometry relative="1" as="geometry">
            <mxPoint x="-300.0004037394748" y="479.6224122054766" as="targetPoint" />
          </mxGeometry>
        </mxCell>
        <mxCell id="9QXfI7t6Q8YMWa2osV04-45" value="" style="rounded=0;orthogonalLoop=1;jettySize=auto;html=1;endArrow=none;endFill=0;" parent="1" source="9QXfI7t6Q8YMWa2osV04-48" target="9QXfI7t6Q8YMWa2osV04-50" edge="1">
          <mxGeometry relative="1" as="geometry" />
        </mxCell>
        <mxCell id="9QXfI7t6Q8YMWa2osV04-130" value="" style="edgeStyle=orthogonalEdgeStyle;rounded=0;orthogonalLoop=1;jettySize=auto;html=1;" parent="1" source="9QXfI7t6Q8YMWa2osV04-48" target="9QXfI7t6Q8YMWa2osV04-129" edge="1">
          <mxGeometry relative="1" as="geometry" />
        </mxCell>
        <mxCell id="9QXfI7t6Q8YMWa2osV04-48" value="회원" style="rounded=0;whiteSpace=wrap;html=1;" parent="1" vertex="1">
          <mxGeometry x="-276.88" y="540" width="120" height="60" as="geometry" />
        </mxCell>
        <mxCell id="9QXfI7t6Q8YMWa2osV04-49" value="회사" style="ellipse;whiteSpace=wrap;html=1;rounded=0;" parent="1" vertex="1">
          <mxGeometry x="-350" y="620" width="80" height="80" as="geometry" />
        </mxCell>
        <mxCell id="9QXfI7t6Q8YMWa2osV04-50" value="직급" style="ellipse;whiteSpace=wrap;html=1;rounded=0;" parent="1" vertex="1">
          <mxGeometry x="-256.88" y="680" width="80" height="80" as="geometry" />
        </mxCell>
        <mxCell id="9QXfI7t6Q8YMWa2osV04-58" value="" style="rounded=0;orthogonalLoop=1;jettySize=auto;html=1;endArrow=none;endFill=0;" parent="1" source="9QXfI7t6Q8YMWa2osV04-60" target="9QXfI7t6Q8YMWa2osV04-61" edge="1">
          <mxGeometry relative="1" as="geometry">
            <mxPoint x="13.439596260525207" y="709.6224122054766" as="targetPoint" />
          </mxGeometry>
        </mxCell>
        <mxCell id="9QXfI7t6Q8YMWa2osV04-59" value="" style="rounded=0;orthogonalLoop=1;jettySize=auto;html=1;endArrow=none;endFill=0;" parent="1" source="9QXfI7t6Q8YMWa2osV04-60" target="9QXfI7t6Q8YMWa2osV04-62" edge="1">
          <mxGeometry relative="1" as="geometry" />
        </mxCell>
        <mxCell id="9QXfI7t6Q8YMWa2osV04-69" value="" style="rounded=0;orthogonalLoop=1;jettySize=auto;html=1;endArrow=none;endFill=0;" parent="1" source="9QXfI7t6Q8YMWa2osV04-60" target="9QXfI7t6Q8YMWa2osV04-68" edge="1">
          <mxGeometry relative="1" as="geometry" />
        </mxCell>
        <mxCell id="9QXfI7t6Q8YMWa2osV04-71" value="" style="rounded=0;orthogonalLoop=1;jettySize=auto;html=1;endArrow=none;endFill=0;" parent="1" source="9QXfI7t6Q8YMWa2osV04-60" target="9QXfI7t6Q8YMWa2osV04-70" edge="1">
          <mxGeometry relative="1" as="geometry" />
        </mxCell>
        <mxCell id="9QXfI7t6Q8YMWa2osV04-74" value="" style="rounded=0;orthogonalLoop=1;jettySize=auto;html=1;endArrow=none;endFill=0;" parent="1" source="9QXfI7t6Q8YMWa2osV04-60" target="9QXfI7t6Q8YMWa2osV04-73" edge="1">
          <mxGeometry relative="1" as="geometry" />
        </mxCell>
        <mxCell id="9QXfI7t6Q8YMWa2osV04-123" style="edgeStyle=orthogonalEdgeStyle;rounded=0;orthogonalLoop=1;jettySize=auto;html=1;entryX=0.5;entryY=1;entryDx=0;entryDy=0;endArrow=none;endFill=0;" parent="1" source="9QXfI7t6Q8YMWa2osV04-60" target="9QXfI7t6Q8YMWa2osV04-114" edge="1">
          <mxGeometry relative="1" as="geometry" />
        </mxCell>
        <mxCell id="9QXfI7t6Q8YMWa2osV04-60" value="라이더" style="rounded=0;whiteSpace=wrap;html=1;" parent="1" vertex="1">
          <mxGeometry x="25" y="810" width="120" height="60" as="geometry" />
        </mxCell>
        <mxCell id="9QXfI7t6Q8YMWa2osV04-61" value="이름" style="ellipse;whiteSpace=wrap;html=1;rounded=0;" parent="1" vertex="1">
          <mxGeometry x="-70" y="860" width="80" height="30" as="geometry" />
        </mxCell>
        <mxCell id="9QXfI7t6Q8YMWa2osV04-62" value="근무시간" style="ellipse;whiteSpace=wrap;html=1;rounded=0;" parent="1" vertex="1">
          <mxGeometry x="-33.120000000000005" y="910" width="80" height="40" as="geometry" />
        </mxCell>
        <mxCell id="9QXfI7t6Q8YMWa2osV04-68" value="현재 위치" style="ellipse;whiteSpace=wrap;html=1;rounded=0;" parent="1" vertex="1">
          <mxGeometry x="30" y="950" width="80" height="30" as="geometry" />
        </mxCell>
        <mxCell id="9QXfI7t6Q8YMWa2osV04-70" value="전화 번호" style="ellipse;whiteSpace=wrap;html=1;rounded=0;" parent="1" vertex="1">
          <mxGeometry x="90" y="925" width="80" height="40" as="geometry" />
        </mxCell>
        <mxCell id="9QXfI7t6Q8YMWa2osV04-73" value="급여 유형" style="ellipse;whiteSpace=wrap;html=1;rounded=0;" parent="1" vertex="1">
          <mxGeometry x="150" y="900" width="80" height="30" as="geometry" />
        </mxCell>
        <mxCell id="9QXfI7t6Q8YMWa2osV04-133" style="edgeStyle=orthogonalEdgeStyle;rounded=0;orthogonalLoop=1;jettySize=auto;html=1;entryX=0;entryY=0.5;entryDx=0;entryDy=0;" parent="1" target="9QXfI7t6Q8YMWa2osV04-126" edge="1">
          <mxGeometry relative="1" as="geometry">
            <mxPoint x="91.88000000000011" y="570" as="sourcePoint" />
          </mxGeometry>
        </mxCell>
        <mxCell id="9QXfI7t6Q8YMWa2osV04-79" value="" style="rounded=0;orthogonalLoop=1;jettySize=auto;html=1;endArrow=none;endFill=0;" parent="1" source="9QXfI7t6Q8YMWa2osV04-84" target="9QXfI7t6Q8YMWa2osV04-85" edge="1">
          <mxGeometry relative="1" as="geometry">
            <mxPoint x="256.55959626052515" y="479.6224122054766" as="targetPoint" />
          </mxGeometry>
        </mxCell>
        <mxCell id="9QXfI7t6Q8YMWa2osV04-80" value="" style="rounded=0;orthogonalLoop=1;jettySize=auto;html=1;endArrow=none;endFill=0;" parent="1" source="9QXfI7t6Q8YMWa2osV04-84" target="9QXfI7t6Q8YMWa2osV04-86" edge="1">
          <mxGeometry relative="1" as="geometry" />
        </mxCell>
        <mxCell id="9QXfI7t6Q8YMWa2osV04-81" value="" style="rounded=0;orthogonalLoop=1;jettySize=auto;html=1;endArrow=none;endFill=0;" parent="1" source="9QXfI7t6Q8YMWa2osV04-84" target="9QXfI7t6Q8YMWa2osV04-87" edge="1">
          <mxGeometry relative="1" as="geometry" />
        </mxCell>
        <mxCell id="9QXfI7t6Q8YMWa2osV04-82" value="" style="rounded=0;orthogonalLoop=1;jettySize=auto;html=1;endArrow=none;endFill=0;" parent="1" source="9QXfI7t6Q8YMWa2osV04-84" target="9QXfI7t6Q8YMWa2osV04-88" edge="1">
          <mxGeometry relative="1" as="geometry" />
        </mxCell>
        <mxCell id="9QXfI7t6Q8YMWa2osV04-92" style="rounded=0;orthogonalLoop=1;jettySize=auto;html=1;endArrow=none;endFill=0;" parent="1" source="9QXfI7t6Q8YMWa2osV04-84" target="9QXfI7t6Q8YMWa2osV04-22" edge="1">
          <mxGeometry relative="1" as="geometry" />
        </mxCell>
        <mxCell id="9QXfI7t6Q8YMWa2osV04-84" value="가맹점" style="rounded=0;whiteSpace=wrap;html=1;" parent="1" vertex="1">
          <mxGeometry x="285" y="540" width="120" height="60" as="geometry" />
        </mxCell>
        <mxCell id="9QXfI7t6Q8YMWa2osV04-85" value="이름" style="ellipse;whiteSpace=wrap;html=1;rounded=0;" parent="1" vertex="1">
          <mxGeometry x="183.12" y="680" width="80" height="30" as="geometry" />
        </mxCell>
        <mxCell id="9QXfI7t6Q8YMWa2osV04-86" value="전화번호" style="ellipse;whiteSpace=wrap;html=1;rounded=0;" parent="1" vertex="1">
          <mxGeometry x="253.12" y="720" width="80" height="40" as="geometry" />
        </mxCell>
        <mxCell id="9QXfI7t6Q8YMWa2osV04-87" value="영업 시간" style="ellipse;whiteSpace=wrap;html=1;rounded=0;" parent="1" vertex="1">
          <mxGeometry x="360" y="725" width="80" height="30" as="geometry" />
        </mxCell>
        <mxCell id="9QXfI7t6Q8YMWa2osV04-88" value="메뉴" style="ellipse;whiteSpace=wrap;html=1;rounded=0;" parent="1" vertex="1">
          <mxGeometry x="390" y="640" width="80" height="40" as="geometry" />
        </mxCell>
        <mxCell id="9QXfI7t6Q8YMWa2osV04-99" value="가격" style="ellipse;whiteSpace=wrap;html=1;rounded=0;" parent="1" vertex="1">
          <mxGeometry x="-100" y="410" width="80" height="80" as="geometry" />
        </mxCell>
        <mxCell id="9QXfI7t6Q8YMWa2osV04-102" value="배달 품목" style="ellipse;whiteSpace=wrap;html=1;rounded=0;" parent="1" vertex="1">
          <mxGeometry x="11.879999999999999" y="390" width="80" height="80" as="geometry" />
        </mxCell>
        <mxCell id="9QXfI7t6Q8YMWa2osV04-104" value="배달 시간" style="ellipse;whiteSpace=wrap;html=1;rounded=0;" parent="1" vertex="1">
          <mxGeometry x="111.88" y="410" width="80" height="80" as="geometry" />
        </mxCell>
        <mxCell id="9QXfI7t6Q8YMWa2osV04-137" style="edgeStyle=orthogonalEdgeStyle;rounded=0;orthogonalLoop=1;jettySize=auto;html=1;entryX=0.5;entryY=1;entryDx=0;entryDy=0;" parent="1" source="9QXfI7t6Q8YMWa2osV04-114" target="9QXfI7t6Q8YMWa2osV04-135" edge="1">
          <mxGeometry relative="1" as="geometry" />
        </mxCell>
        <mxCell id="9QXfI7t6Q8YMWa2osV04-114" value="배정" style="rhombus;whiteSpace=wrap;html=1;rounded=0;" parent="1" vertex="1">
          <mxGeometry x="45" y="655" width="80" height="80" as="geometry" />
        </mxCell>
        <mxCell id="9QXfI7t6Q8YMWa2osV04-134" style="edgeStyle=orthogonalEdgeStyle;rounded=0;orthogonalLoop=1;jettySize=auto;html=1;" parent="1" source="9QXfI7t6Q8YMWa2osV04-126" target="9QXfI7t6Q8YMWa2osV04-84" edge="1">
          <mxGeometry relative="1" as="geometry" />
        </mxCell>
        <mxCell id="9QXfI7t6Q8YMWa2osV04-126" value="전달" style="rhombus;whiteSpace=wrap;html=1;rounded=0;" parent="1" vertex="1">
          <mxGeometry x="140" y="530" width="80" height="80" as="geometry" />
        </mxCell>
        <mxCell id="9QXfI7t6Q8YMWa2osV04-142" style="edgeStyle=orthogonalEdgeStyle;rounded=0;orthogonalLoop=1;jettySize=auto;html=1;" parent="1" source="9QXfI7t6Q8YMWa2osV04-129" target="9QXfI7t6Q8YMWa2osV04-135" edge="1">
          <mxGeometry relative="1" as="geometry" />
        </mxCell>
        <mxCell id="9QXfI7t6Q8YMWa2osV04-129" value="주문" style="rhombus;whiteSpace=wrap;html=1;rounded=0;" parent="1" vertex="1">
          <mxGeometry x="-130" y="530" width="80" height="80" as="geometry" />
        </mxCell>
        <mxCell id="9QXfI7t6Q8YMWa2osV04-139" style="rounded=0;orthogonalLoop=1;jettySize=auto;html=1;" parent="1" source="9QXfI7t6Q8YMWa2osV04-135" target="9QXfI7t6Q8YMWa2osV04-102" edge="1">
          <mxGeometry relative="1" as="geometry" />
        </mxCell>
        <mxCell id="9QXfI7t6Q8YMWa2osV04-140" style="rounded=0;orthogonalLoop=1;jettySize=auto;html=1;" parent="1" source="9QXfI7t6Q8YMWa2osV04-135" target="9QXfI7t6Q8YMWa2osV04-104" edge="1">
          <mxGeometry relative="1" as="geometry" />
        </mxCell>
        <mxCell id="9QXfI7t6Q8YMWa2osV04-135" value="배달 내역" style="whiteSpace=wrap;html=1;" parent="1" vertex="1">
          <mxGeometry x="11.88" y="540" width="78.12" height="60" as="geometry" />
        </mxCell>
        <mxCell id="9QXfI7t6Q8YMWa2osV04-138" style="rounded=0;orthogonalLoop=1;jettySize=auto;html=1;" parent="1" source="9QXfI7t6Q8YMWa2osV04-135" target="9QXfI7t6Q8YMWa2osV04-99" edge="1">
          <mxGeometry relative="1" as="geometry" />
        </mxCell>
      </root>
    </mxGraphModel>
  </diagram>
</mxfile>
